# xmcd
#
# Track frame offsets:
#	150
#	1750
#	24098
#	43966
#	55388
#	68852
#	93952
#	103178
#	122885
#	132144
#	136749
#	145078
#	152644
#	178996
#	192554
#	208759
#	230814
#	244890
#	264927
#
# Disc length: 3731 seconds
#
# Revision: 0
# Processed by: cddbd v1.5.2PL0 Copyright (c) Steve Scherf et al.
# Submitted via: EasyCDDAExtractor 15.2.0.1
#
DISCID=120e9113
DTITLE=Ökrös Otto
DYEAR=1900
DGENRE=
TTITLE0=Intro
TTITLE1=Ballad Pour Adeline
TTITLE2=Caravan
TTITLE3=Szomorú vasárnap
TTITLE4=Én mindenkiben csalódtam
TTITLE5=Sweet Georgia Brown
TTITLE6=Télapó itt van
TTITLE7=If I were a richman
TTITLE8=Hungarian Folk Song (Elindultam széphazámból)
TTITLE9=Az a szép az a szép
TTITLE10=Chattanooga choo choo
TTITLE11=In the night to Moscow
TTITLE12=Yes Sir!
TTITLE13=Egy kis édes félhomályban
TTITLE14=Little MArlene
TTITLE15=Azért vannak a jóbarátok
TTITLE16=Hamvadó cigarettavég
TTITLE17=Ezt a nagy szerelmet
TTITLE18=Für Elise
EXTD=
EXTT0=
EXTT1=
EXTT2=
EXTT3=
EXTT4=
EXTT5=
EXTT6=
EXTT7=
EXTT8=
EXTT9=
EXTT10=
EXTT11=
EXTT12=
EXTT13=
EXTT14=
EXTT15=
EXTT16=
EXTT17=
EXTT18=
PLAYORDER=
